<?xml version="1.0" encoding="UTF-8" standalone="no"?>

<!-- converting this into an svg took god damn FOREVER -->
<!-- i fucking hate inkscape -->

<!-- hey if you're reading this you should check out my website: https://jackdotjs.github.io/  -->

<svg
   version="1.1"
   viewBox="0 0 2730.6667 2730.6667"
   xmlns="http://www.w3.org/2000/svg"
   xmlns:svg="http://www.w3.org/2000/svg">
  <g>
    <g>
      <path
         style="display:inline;fill:#FFC8B5;fill-opacity:1"
         d="m 1011.3457,433.9082 c -13.47648,0.17133 -26.37262,8.13292 -33.04687,19.76172 -5.44233,9.19103 -6.41745,20.63265 -3.54115,30.83017 1.82055,6.68247 4.73085,12.99286 7.42309,19.35319 8.0817,18.43202 18.53653,35.81325 30.97123,51.63585 1.4641,1.87468 2.9488,3.73323 4.4515,5.57728 -65.99782,6.6725 -131.23219,21.08679 -193.8112,43.11408 -55.58996,19.58211 -109.11783,45.37486 -158.22513,78.04703 -6.49562,4.33537 -12.92131,8.77591 -19.24881,13.35451 -26.341,-19.50124 -53.22226,-38.28143 -80.7678,-56.04577 -50.65457,-32.73417 -103.41417,-62.31033 -158.31825,-87.31569 -39.26415,-17.77641 -79.76022,-33.05087 -121.51064,-43.88854 -6.12376,-1.58652 -12.53857,-2.55863 -18.84667,-1.58398 -10.80287,1.45818 -21.05722,7.29308 -27.41797,16.20898 -5.42935,7.40748 -8.12743,16.5793 -8.87891,25.60742 -2.96834,28.15696 -4.67568,56.43818 -5.51015,84.73571 -1.73699,61.74155 1.07084,123.55835 7.10064,185.00953 6.56425,66.0844 17.11832,131.78503 31.90836,196.53031 7.53387,32.6615 16.16946,65.0595 25.40545,97.2772 -7.92124,9.1658 -16.33659,17.8998 -25.07026,26.2923 -5.80244,5.4678 -11.87789,10.6662 -18.39654,15.2663 -0.65595,0.4403 -1.54193,1.0707 -2.29843,1.5703 -6.46115,4.3265 -13.3478,8.0599 -20.63907,10.7871 -1.40705,0.5266 -3.04354,1.0885 -4.56448,1.5543 -1.43508,0.4423 -2.86594,0.8356 -4.24764,1.1699 -5.76466,1.4366 -11.72905,2.0568 -17.66538,1.7655 -4.70809,-0.1896 -9.29649,-0.6958 -14.01198,-1.0017 -25.02175,-1.8884 -50.04206,-3.7983 -75.06325,-5.695 14.26468,20.8632 28.18036,41.8677 41.85107,63.1279 7.35733,11.6298 15.42379,22.875 24.9228,32.865 23.42385,25.0216 53.66527,43.7173 86.71435,52.9329 31.68184,8.8707 65.82036,9.0938 97.50983,0.1386 -0.55452,24.4595 -0.52096,48.9668 1.4272,73.3691 2.77115,39.3577 8.04989,78.473 12.90479,117.6119 3.3575,26.512 6.80758,53.0025 9.91996,79.5307 1.92442,16.5154 3.66277,33.1418 5.00809,49.7087 0.6679,8.1294 1.23287,16.2134 1.72043,24.3617 0.45455,8.2539 0.85445,16.7017 1.07923,24.9657 0.45423,16.5798 0.43822,33.1886 -0.34011,49.7314 -0.2017,4.0843 -0.4467,8.1955 -0.75165,12.3392 -0.52511,7.3474 -1.26158,14.8089 -2.16716,22.1805 -1.29697,10.2507 -2.97702,20.6492 -5.21092,30.8141 -0.40126,1.8372 -0.82923,3.6928 -1.24807,5.4612 -2.54481,10.6782 -5.72875,21.2077 -9.65429,31.461 -0.55369,1.4023 -1.17483,3.0254 -1.78851,4.499 -3.77916,9.2686 -8.21622,18.2696 -13.33257,26.8741 -2.09069,3.5874 -4.26229,7.0087 -6.42511,10.5772 -12.58364,20.5908 -25.18365,41.1714 -37.78584,61.7509 23.87823,-2.163 47.74601,-4.4559 71.64879,-6.3342 12.43085,-0.9586 24.91855,-1.6756 37.18968,-4.0029 10.9909,-2.0309 21.76046,-5.1811 32.21625,-9.1154 19.91314,-7.5418 38.53417,-18.2982 55.43082,-31.2211 26.56329,-20.1231 49.1934,-44.943 69.49505,-71.247 21.30567,-27.665 40.03866,-57.2116 57.66447,-87.3259 6.30407,-10.8375 12.41296,-21.7876 18.40572,-32.8004 -3.2118,27.2963 -1.33383,54.9841 3.46243,81.979 5.71557,32.003 15.75465,63.108 28.20265,93.0946 20.33963,48.8854 47.32935,94.7914 77.97164,137.8912 37.1659,52.102 80.08786,99.9928 126.93945,143.5508 20.8925,19.4513 42.34762,38.2937 64.19568,56.6635 50.26816,42.0493 103.28936,80.9417 159.53286,114.647 41.8039,24.9518 85.5082,46.9108 131.1949,63.8343 37.5991,13.8622 76.678,24.1399 116.5723,28.4668 30.6846,3.3113 61.7785,2.4448 92.2926,-2.0914 43.6582,-6.2441 86.1661,-19.0422 127.0456,-35.404 48.9101,-19.6209 95.5559,-44.5735 140.0963,-72.6674 53.6608,-33.8873 104.2233,-72.5727 151.7014,-114.6588 49.5759,-44.0429 95.7367,-91.9926 137.2979,-143.6841 30.9378,-38.5803 59.2514,-79.3622 83.2895,-122.6128 17.6147,-31.8146 32.8439,-65.055 43.9286,-99.7261 9.6518,-30.3478 16.0316,-61.9283 16.6654,-93.8365 0.3458,-19.3871 -1.4824,-38.8604 -6.0923,-57.7137 25.0616,-11.9234 47.7233,-28.3518 68.5322,-46.6028 24.8591,-21.7316 47.6272,-45.7527 69.1631,-70.7517 42.9737,-50.1588 80.0446,-105.1904 112.2892,-162.7811 39.1665,-69.9279 71.2767,-143.6984 97.4451,-219.4198 28.7948,-83.4281 50.2986,-169.3429 64.67,-256.41256 13.041,-79.13956 20.0822,-159.2969 20.4259,-239.51524 0.1727,-43.83906 -1.6878,-87.69613 -5.9259,-131.33208 -1.0778,-9.44778 -4.4187,-18.85471 -10.6895,-26.12222 -7.2537,-8.508 -18.143,-13.67491 -29.283,-14.21775 -5.0696,-0.29379 -10.1498,0.42684 -15.0361,1.75995 -7.1541,1.73895 -14.193,3.90782 -21.2664,5.94205 -49.1304,14.64189 -96.3644,35.04743 -142.0305,58.22074 -60.4172,30.74031 -118.093,66.68032 -173.3765,105.85792 -59.5133,42.2501 -116.1596,88.5262 -169.5126,138.32623 -27.4229,25.64527 -53.9244,52.28226 -79.2918,79.96438 -28.3373,-60.81616 -63.2829,-118.72537 -105.6361,-170.83772 -35.3332,-43.45493 -75.8763,-82.74709 -120.9281,-116.05704 -43.1551,-31.94645 -90.4313,-58.26512 -140.1472,-78.51302 -43.3707,-17.82789 -88.3462,-31.74 -134.1997,-41.54768 -58.3542,-12.5522 -117.7527,-19.36322 -177.148,-24.67114 -40.1915,-3.49796 -80.4605,-6.06619 -120.6537,-9.55642 -10.0274,-0.88714 -20.0162,-1.83985 -30.0332,-2.92831 -18.4135,-2.06996 -36.9981,-4.38915 -54.9976,-9.11384 -6.0351,-1.58195 -11.8385,-3.4384 -17.7646,-5.41349 -6.2606,-2.10937 -12.7029,-3.99417 -19.3539,-4.17075 -0.7104,-0.0231 -1.4213,-0.0225 -2.132,-0.0109 z" />
      <path
         style="display:inline;fill:#242035"
         d="m 1372,2507.2197 c -2.5666,-0.2957 -11.2125,-1.1702 -19.213,-1.9432 -247.9754,-23.9601 -596.63146,-290.531 -730.88885,-558.8133 l -14.02389,-28.0235 -14.30325,13.7802 c -77.66974,74.8294 -193.14983,108.4945 -262.40455,76.4969 -65.771,-30.3881 -93.29607,-109.9714 -60.11605,-173.8137 15.84478,-30.4872 18.03164,-35.3886 21.33365,-47.8149 5.58697,-21.0251 7.72849,-38.888 8.52248,-71.0881 1.28137,-51.9661 -0.62638,-73.3616 -20.18166,-226.3382 -2.55484,-19.9859 -5.66227,-46.7147 -6.90541,-59.3973 l -2.26024,-23.0592 -15.34579,-2.9519 c -97.4399,-18.743 -193.970309,-107.5363 -199.965992,-183.9384 -5.472404,-69.734 45.422352,-132.7825 111.692962,-138.3654 4.79945,-0.4043 11.17809,-1.0304 14.17477,-1.3914 l 5.4485,-0.6562 -6.42583,-26.2844 c -54.49336,-222.90083 -63.2371,-511.07935 -17.5934,-579.8482 32.02489,-48.25016 87.80297,-66.92771 150.71242,-50.46677 91.60296,23.9689 204.42177,77.55672 309.13473,146.83592 13.16796,8.71206 24.34894,16.03063 24.84662,16.26347 0.49767,0.23285 8.57379,-3.91876 17.94692,-9.22579 57.96499,-32.81956 130.548,-62.05622 196.48155,-79.14336 14.9585,-3.8766 21.87294,-6.24238 21.60302,-7.39149 -2.92052,-12.43324 1.04137,-47.43142 7.23272,-63.89163 25.30344,-67.27134 93.8389,-98.03801 166.49757,-74.74345 18.2662,5.85617 30.5737,8.43961 53.3334,11.195 25.7308,3.1151 28.0332,3.3154 86,7.48143 166.6122,11.97433 239.7152,23.43684 333.3333,52.26647 171.3951,52.78102 313.7795,158.56938 412.3733,306.38406 6.6034,9.9 12.1921,18.22125 12.4193,18.49167 0.4772,0.56805 4.8247,-3.18891 32.0353,-27.68379 205.1607,-184.68456 480.6186,-326.24565 581.4872,-298.83314 58.562,15.91508 89.8261,59.42596 96.3019,134.02525 37.5733,432.83471 -142.615,945.44405 -405.1241,1152.51915 -6.1455,4.8478 -12.2605,9.7142 -13.5888,10.8142 -2.0463,1.6947 -2.7316,6.1725 -4.4892,29.3334 -24.989,329.3064 -490.4965,754.0692 -832.0816,759.2517 -18.3333,0.2781 -35.4333,0.2637 -38,-0.032 z m 66,-128.6801 c 127.3974,-12.0417 290.7994,-104.1749 452.6667,-255.2333 167.7839,-156.5799 258.8966,-355.0403 212.9763,-463.902 l -3.3446,-7.929 10.8508,-3.5758 c 33.6868,-11.1011 66.3093,-33.5203 105.592,-72.5661 218.0825,-216.7675 352.5114,-638.69257 321.6826,-1009.64878 -1.9913,-23.96072 -1.0315,-22.70904 -14.6162,-19.06097 -181.4146,48.71748 -427.1755,218.34573 -588.6277,406.28066 -5.7823,6.73069 -10.8953,12.28069 -11.3624,12.33333 -0.467,0.0526 -5.7959,-11.45428 -11.8419,-25.57095 C 1835.0237,759.99371 1716.4023,635.06574 1560.4761,569.47948 1463.9883,528.89441 1373.501,511.13235 1200,498.72042 c -109.4177,-7.82754 -142.0765,-12.16125 -175.1283,-23.23896 -16.3335,-5.47434 -15.7172,-5.92701 -10.2741,7.54699 12.4673,30.86195 29.898,54.67244 66.382,90.67858 10.9827,10.83886 19.6052,19.91196 19.1612,20.16244 -0.4441,0.25048 -12.2074,0.85478 -26.1408,1.34289 -154.09047,5.3981 -306.25451,55.97913 -414.3551,137.73631 -7.95007,6.01269 -13.66244,9.46727 -14.66667,8.86974 -0.90468,-0.53829 -7.34488,-5.26943 -14.31154,-10.51363 -120.82659,-90.953 -248.13564,-158.1692 -351.01916,-185.32991 -11.21729,-2.96131 -10.35831,-4.18276 -12.41597,17.65502 -12.64485,134.19852 0.51986,300.91753 35.54899,450.19541 7.55603,32.2003 24.29151,93.8742 28.44919,104.8414 1.37717,3.6327 -28.80131,37.4979 -48.78507,54.7448 -29.28249,25.2721 -60.25569,37.2468 -90.39538,34.9484 l -9.95072,-0.7588 2.48713,3.8661 c 41.71325,64.8417 122.65357,88.3891 189.10393,55.0147 l 10.35629,-5.2014 1.15885,3.0264 c 0.63737,1.6646 3.56051,8.2164 6.49586,14.5596 l 5.33702,11.5331 -0.69253,31.1335 c -1.03744,46.6396 1.73508,81.2162 14.31039,178.4669 8.81204,68.1477 11.53211,91.0244 13.95111,117.3334 11.6151,126.3261 0.15733,209.2294 -37.38556,270.5052 l -3.57722,5.8386 12.93677,-0.9699 c 83.01094,-6.2236 153.12092,-77.4194 238.68359,-242.3801 8.53654,-16.4581 13.5,-24.6882 14.51975,-24.0759 0.85217,0.5118 4.5494,2.8106 8.21607,5.1087 9.53396,5.9752 23.63191,12.423 36.18262,16.5483 l 10.84929,3.566 -3.08185,7.575 c -45.17898,111.0474 44.32393,306.9079 211.65009,463.1569 195.42853,182.491 375.32023,270.4244 524.39983,256.3334 z m -404,-507.3424 c -115.35461,-8.8537 -215.11459,-92.2957 -241.34039,-201.8638 -2.07777,-8.6807 -3.38808,-11.1434 -9.9317,-18.6667 -29.27999,-33.6634 -52.58944,-68.1008 -72.93469,-107.7535 -14.53326,-28.3253 -15.23754,-27.6853 15.83691,-14.3908 72.98859,31.2267 155.1498,55.8809 245.50252,73.668 l 32.86435,6.4698 -0.9529,4.6699 c -6.4229,31.478 10.9649,68.2219 39.3055,83.0604 50.4722,26.4262 107.9469,-3.8123 115.6453,-60.8431 l 0.871,-6.4527 7.5671,0.8357 c 19.0161,2.1002 73.8273,6.2102 110.2337,8.2659 46.4734,2.6241 42.2485,1.1283 39.9559,14.1458 -23.2113,131.7927 -148.8952,229.1189 -282.6226,218.8551 z m 700.0001,0 c -105.6904,-8.112 -195.6867,-75.5444 -232.9309,-174.5305 -8.2888,-22.0296 -15.7142,-55.0912 -12.5681,-55.9594 0.8244,-0.2275 19.4708,-1.4119 41.4365,-2.6319 21.9656,-1.22 57.0326,-3.669 77.9267,-5.4423 20.8941,-1.7732 38.2084,-3.0048 38.4763,-2.7369 0.2679,0.2679 1.0289,4.3133 1.6912,8.9897 8.9981,63.5382 87.0951,89.6416 132.4621,44.2746 17.7629,-17.7629 26.2873,-44.7172 21.8754,-69.1705 l -0.964,-5.3433 32.9522,-6.4871 c 93.9195,-18.4894 179.7117,-44.6655 255.3092,-77.8977 10.0834,-4.4326 18.3247,-7.6548 18.3142,-7.1606 -0.01,0.4943 -2.9763,7.0479 -6.5905,14.5635 -18.9254,39.3541 -45.9792,80.7007 -74.8337,114.3691 -10.6603,12.4389 -11.6227,14.0594 -13.8571,23.3334 -29.681,123.1904 -151.7282,211.5751 -278.6995,201.8299 z m -538.6667,-330.7543 c -53.7026,-4.4528 -99.561,-13.0274 -226.02302,-42.2618 -103.73617,-23.9808 -143.25549,-30.9553 -183.75248,-32.4289 l -23.10879,-0.841 0.88742,-4.7889 c 5.10731,-27.5613 59.14657,-67.5633 117.99683,-87.3459 64.37074,-21.6383 122.25104,-22.2528 182.97344,-1.9426 41.7198,13.9543 67.8999,27.1021 145.3305,72.9858 51.493,30.5137 88.6472,45.9516 117.9662,49.016 l 8.2654,0.864 -2.9344,5.2983 c -17.5039,31.6046 -69.0471,47.1292 -137.6011,41.445 z m 326,-76.6242 c -19.9727,-1.9877 -37.7221,-10.8757 -52.604,-26.3413 L 1463.4588,1432 h 4.0574 c 33.0784,0 73.2763,-27.1978 160.4838,-108.583 144.2234,-134.5945 210.3889,-159.2597 285.2571,-106.3381 55.0867,38.9387 115.8344,148.7855 123.4648,223.2545 1.1997,11.7092 0.1587,11.4205 -9.6164,-2.6667 -79.486,-114.5501 -162.714,-120.6496 -349.1054,-25.585 -86.0355,43.8803 -120.6737,55.3191 -156.6667,51.737 z" />
    </g>
  </g>
</svg>
