<svg viewBox="0 0 71.412065 71.412065" xmlns="http://www.w3.org/2000/svg">
  <path d="m35.70491,10.70603s-22.35122,0.00011 -27.93945,1.4707c-3,0.82353 -5.4714,3.2947 -6.29493,6.35352c-1.47059,5.58823 -1.4707,17.17578 -1.4707,17.17578s0.00011,11.64637 1.4707,17.17578c0.82353,3.05883 3.2361,5.47139 6.29493,6.29492c5.64705,1.52942 27.93945,1.5293 27.93945,1.5293s22.35317,-0.00012 27.9414,-1.4707c3.05883,-0.82353 5.4714,-3.2361 6.29493,-6.29492c1.47058,-5.58824 1.4707,-17.17579 1.4707,-17.17579s0.05871,-11.64614 -1.4707,-17.23437c-0.82353,-3.05882 -3.2361,-5.47139 -6.29493,-6.29492c-5.58823,-1.52941 -27.9414,-1.5293 -27.9414,-1.5293zm-7.11719,14.29492l18.58789,10.70508l-18.58789,10.70508l0,-21.41016z"/>
</svg>