<svg viewBox="0 0 580.00299 580.00299" xmlns="http://www.w3.org/2000/svg">
  <path d="m 125.7232,69.036266 c 66.496,49.920994 138.02,151.140004 164.28,205.460004 26.262,-54.316 97.782,-155.54001 164.28,-205.460004 47.98,-36.021 125.72,-63.8920002 125.72,24.794999 0,17.711995 -10.155,148.790005 -16.111,170.070005 -20.703,73.984 -96.144,92.854 -163.25,81.433 117.3,19.964 147.14,86.092 82.697,152.22 -122.39,125.59 -175.91,-31.511 -189.63,-71.766 -2.514,-7.3797 -3.6904,-10.832 -3.7077,-7.8964 -0.0174,-2.9357 -1.1937,0.51669 -3.7077,7.8964 -13.714,40.255 -67.233,197.36 -189.630005,71.766 -64.444,-66.128 -34.605,-132.26 82.697005,-152.22 -67.108,11.421 -142.550005,-7.4491 -163.250005,-81.433 C 10.154595,242.61927 -2.0463867e-4,111.54126 -2.0463867e-4,93.831265 -2.0463867e-4,5.1442658 77.741795,33.015266 125.7198,69.036266 Z" />
</svg>