<svg viewBox="0 0 177.235 177.235" xmlns="http://www.w3.org/2000/svg">
  <path fill-rule="evenodd" clip-rule="evenodd" d="m142.81994,131.09879c-11.109,6.803 -23.917,12.149 -38.424,16.036c-16.1121,4.317 -31.2981,6.048 -45.5583,5.192c-14.2601,-0.856 -26.4095,-4.576 -36.4483,-11.16c-10.0388,-6.584 -16.80706,-16.403 -20.30472,-29.4568c-3.51773,-13.1282 -2.57069,-25.0343 2.84112,-35.7184c5.4118,-10.684 14.0885,-19.9244 26.0302,-27.7211c11.9417,-7.7968 25.9685,-13.85378 42.0804,-18.17091c16.0373,-4.29719 31.1626,-6.03147 45.3756,-5.20287c9.549,0.55676 18.162,2.40188 25.84,5.53534c3.749,1.53031 7.275,3.36788 10.578,5.51274c10.066,6.5368 16.848,16.332 20.346,29.3856c3.497,13.0536 2.527,24.9461 -2.912,35.6774c-0.76,1.4992 -1.583,2.9703 -2.469,4.4141c-0.626,-2.8187 -1.883,-5.2764 -3.771,-7.3731c-0.927,-1.0294 -1.957,-1.9746 -3.092,-2.8358c-2.323,-1.7634 -5.081,-3.1743 -8.274,-4.2327c-4.754,-1.5753 -10.05,-2.3629 -15.889,-2.3629c-5.867,0 -11.183,0.7808 -15.95,2.3425c-4.767,1.5618 -8.556,3.9111 -11.367,7.0481c-2.811,3.137 -4.216,7.0956 -4.216,11.8758c0,4.7531 1.405,8.7048 4.216,11.8554c2.811,3.1506 6.6,5.5206 11.367,7.1096c4.767,1.588 10.083,2.383 15.95,2.383c1.38,0 2.73,-0.044 4.051,-0.133zm-50.8196,-8.4633c-1.1136,1.1951 -3.0759,2.4643 -5.887,3.8093c-2.8111,1.344 -6.1993,2.478 -10.1647,3.402c-3.9654,0.923 -8.2295,1.385 -12.7925,1.385c-3.9925,0 -7.9036,-0.387 -11.7332,-1.161c-3.8295,-0.774 -7.2925,-2.003 -10.3887,-3.687c-3.0963,-1.684 -5.5611,-3.8841 -7.3944,-6.6001c-1.8333,-2.716 -2.75,-6.016 -2.75,-9.8999c0,-3.9382 0.9167,-7.2653 2.75,-9.9814c1.8333,-2.716 4.2981,-4.9024 7.3944,-6.5591c3.0962,-1.6568 6.5592,-2.8587 10.3887,-3.6056c3.8296,-0.7469 7.7407,-1.1203 11.7332,-1.1203c4.5901,0 8.8271,0.4074 12.711,1.2222c3.8839,0.8148 7.2178,1.8808 10.0017,3.1981c2.784,1.3173 4.8006,2.7228 6.05,4.2166l-10.4295,6.8443c-1.521,-1.6567 -3.8296,-2.9807 -6.9259,-3.9721c-3.0962,-0.9913 -6.8579,-1.487 -11.285,-1.487c-2.1728,0 -4.366,0.1698 -6.5796,0.5092c-2.2136,0.3396 -4.2438,0.9167 -6.0907,1.7315c-1.8468,0.8148 -3.3339,1.9555 -4.461,3.4222c-1.1272,1.4666 -1.6908,3.3271 -1.6908,5.5814c0,2.2271 0.5636,4.0673 1.6908,5.5203c1.1271,1.4531 2.6142,2.6074 4.461,3.4629c1.8469,0.8556 3.8771,1.4599 6.0907,1.813c2.2136,0.3531 4.4068,0.5296 6.5796,0.5296c4.3456,0 8.1141,-0.5432 11.3054,-1.6296c3.1913,-1.0864 5.4388,-2.3358 6.7425,-3.7481l10.674,6.8036zm46.7686,-1.5889c5.676,0 10.076,-1.0185 13.2,-3.0555c3.123,-2.037 4.685,-4.7394 4.685,-8.1073c0,-3.4494 -1.569,-6.1586 -4.706,-8.1277c-3.137,-1.9691 -7.53,-2.9537 -13.179,-2.9537c-5.677,0 -10.097,0.9846 -13.261,2.9537c-3.164,1.9691 -4.746,4.6783 -4.746,8.1277c0,3.4222 1.582,6.1382 4.746,8.1481c3.164,2.0098 7.584,3.0147 13.261,3.0147z"/>
</svg>