<svg viewBox="0 0 256 256" xmlns="http://www.w3.org/2000/svg">
  <path d="m 48.0565,251 c 0,-75.329 0,-124.708 0,-188.8331 L 0,5 h 155.429 c 18.462,0 34.617,3.32324 48.464,9.96973 13.846,6.64647 24.616,16.21587 32.309,28.70797 7.692,12.4922 11.539,27.4668 11.539,44.9238 0,17.6175 -3.968,32.4715 -11.904,44.5635 -7.854,12.092 -18.907,21.221 -33.159,27.387 -14.171,6.166 -30.73,9.249 -49.678,9.249 H 88.8679 V 117.91 h 50.5281 c 7.936,0 14.697,-0.961 20.284,-2.883 5.669,-2.002 10.001,-5.165 12.997,-9.489 3.077,-4.3241 4.615,-9.9697 4.615,-16.9365 0,-7.0468 -1.538,-12.7724 -4.615,-17.1767 -2.996,-4.4844 -7.328,-7.7676 -12.997,-9.8496 -5.587,-2.1621 -12.348,-3.2432 -20.284,-3.2432 H 115.59 V 251 Z M 193.811,138.09 256,251 H 182.637 L 121.906,138.09 Z" />
</svg>