<svg viewBox="0 0 95 95" xmlns="http://www.w3.org/2000/svg">
 <path stroke-width="1.08874" fill="#000000" id="path2" d="m94.90854,19.37409c0,-10.70012 -8.67397,-19.37409 -19.37408,-19.37409c-10.64677,0 -19.28046,8.59123 -19.36538,19.21731l-15.63101,2.09038c-1.96082,-6.00657 -7.5983,-10.34954 -14.25811,-10.34954c-8.28421,0 -15.00172,6.71642 -15.00172,15.00172c0,6.64239 4.3212,12.2668 10.30272,14.2396l-2.20469,16.05562c-10.65983,0.04899 -19.28481,8.7001 -19.28481,19.36973c0,10.70012 8.67397,19.37518 19.37408,19.37518c10.67726,0 19.33164,-8.63805 19.36974,-19.30441l18.09265,-2.50083c1.97932,5.97173 7.5983,10.28531 14.23416,10.28531c8.2842,0 15.00171,-6.71643 15.00171,-15.00172c0,-6.89063 -4.65218,-12.68162 -10.98318,-14.44102l1.36528,-15.33923c10.22868,-0.53022 18.36264,-8.96576 18.36264,-19.32401zm-38.71442,48.42597l-18.11551,2.50519c-1.83344,-6.42247 -6.88736,-11.47203 -13.312,-13.30002l2.2047,-16.0774c7.71262,-0.35384 13.89229,-6.51609 14.27008,-14.22218l15.65496,-2.09364c1.89441,6.7567 7.35116,12.00878 14.22545,13.61249l-1.36528,15.32181c-7.40015,0.68808 -13.22381,6.75344 -13.5624,14.25375z"/>
</svg>