<svg viewBox="0 0 232.00976 232.00976" xmlns="http://www.w3.org/2000/svg">
  <mask id="svg_mastodon_mask">
    <rect x="0" y="0" width="232.00976" height="232.00976" fill="#FFFFFF" />
    <path d="m185.30738,80.077l0,60.94125l-24.14375,0l0,-59.15c0,-12.46875 -5.24625,-18.7975 -15.74,-18.7975c-11.6025,0 -17.4175,7.5075 -17.4175,22.3525l0,32.37625l-24.00125,0l0,-32.37625c0,-14.845 -5.81625,-22.3525 -17.41875,-22.3525c-10.49375,0 -15.74,6.32875 -15.74,18.7975l0,59.15l-24.14375,0l0,-60.94125c0,-12.455 3.17125,-22.3525 9.54125,-29.675c6.56875,-7.3225 15.17125,-11.07625 25.85,-11.07625c12.355,0 21.71125,4.74875 27.8975,14.2475l6.01375,10.08125l6.015,-10.08125c6.185,-9.49875 15.54125,-14.2475 27.8975,-14.2475c10.6775,0 19.28,3.75375 25.85,11.07625c6.36875,7.3225 9.54,17.22 9.54,29.675" fill="#000000"/>
  </mask>
  <path mask="url(#svg_mastodon_mask)" d="m219.60503,139.0875c-3.18125,16.36625 -28.4925,34.2775 -57.5625,37.74875c-15.15875,1.80875 -30.08375,3.47125 -45.99875,2.74125c-26.0275,-1.1925 -46.565,-6.2125 -46.565,-6.2125c0,2.53375 0.15625,4.94625 0.46875,7.2025c3.38375,25.68625 25.47,27.225 46.39125,27.9425c21.11625,0.7225 39.91875,-5.20625 39.91875,-5.20625l0.8675,19.09s-14.77,7.93125 -41.08125,9.39c-14.50875,0.7975 -32.52375,-0.365 -53.50625,-5.91875c-45.5075,-12.045 -53.33375,-60.55375 -54.53125,-109.77375c-0.365,-14.61375 -0.14,-28.39375 -0.14,-39.91875c0,-50.33 32.97625,-65.0825 32.97625,-65.0825c16.6275,-7.63625 45.15875,-10.8475 74.82,-11.09l0.72875,0c29.66125,0.2425 58.21125,3.45375 74.8375,11.09c0,0 32.975,14.7525 32.975,65.0825c0,0 0.41375,37.13375 -4.59875,62.915" fill="#000000"/>
</svg>