<svg viewBox="0 0 272.72 272.72" xmlns="http://www.w3.org/2000/svg">
  <path d="m134.28527,139.35998c-23.13,0 -35.74,-23 -36.27,-23.94a4.72,4.72 0 0 1 8.31,-4.48c0.17,0.32 10.9,19.61 28.86,19c19.23,-0.67 25.85,-13.06 27.8,-18.35a4.72,4.72 0 1 1 8.85,3.26c-2,5.53 -10.67,23.63 -36.32,24.53l-1.23,-0.02z"/>
  <circle cx="112.42527" cy="89.08998" r="6.71"/>
  <circle cx="157.90527" cy="89.08998" r="6.71"/>
  <path d="m247.52527,260.40998a34.19,34.19 0 0 1 -3.65,-0.19c-10.54,-1.11 -20.22,-7 -27.29,-16.71a62.87,62.87 0 0 1 -10.48,0.47c-18.08,-0.65 -36.26,-8.88 -46.29,-21a50.35,50.35 0 0 1 -4.17,-5.8c-24.47,4.33 -46.85,0.19 -63.54,-11.85a71.81,71.81 0 0 1 -26.86,-38.21c-9,1.16 -29.32,1.73 -47,-12.58a50.87,50.87 0 0 1 0,-78.12c17.65,-14.31 38,-13.74 47,-12.58c8.87,-30.28 36.75,-51.53 68.17,-51.53l2.75,0c31.43,0 59.29,21.25 68.17,51.57c9,-1.16 29.32,-1.73 47,12.58a50.85,50.85 0 0 1 18.39,44.46c-2.12,19.67 -16.31,36.71 -36.16,43.43l-3,-8.94c16.38,-5.54 28.08,-19.48 29.8,-35.5a41.27,41.27 0 0 0 -14.95,-36.12c-19.42,-15.67 -43.18,-10 -43.42,-9.94l-4.67,1.16l-1.07,-4.7c-6.41,-28.32 -31.56,-48.56 -60.09,-48.56l-1.48,0c-29,-0.59 -54.86,19.81 -61.36,48.55l-1.07,4.7l-4.67,-1.16c-0.23,0 -24.16,-5.63 -43.36,9.94a41.43,41.43 0 0 0 0,63.46c19.32,15.67 43.12,10 43.36,9.94l4.67,-1.16l1.07,4.7a62.5,62.5 0 0 0 24.31,37c17.65,12.73 38.91,12.81 53.61,10.65c-7.21,-18.46 -4.72,-40.72 7.61,-55.42a33,33 0 0 1 20,-11.8c13.62,-2.1 26.69,6.74 30.4,20.57a32.6,32.6 0 0 1 -3.76,26.15c-8.49,14.1 -26,23.12 -40,27.13c0.49,0.68 1,1.34 1.55,2c8.26,9.95 24.09,17 39.38,17.56c1.59,0.06 3.29,0 5.08,-0.05c-7,-16.74 -5.47,-39.28 9.28,-53a25.55,25.55 0 0 1 24.08,-6.2a23.72,23.72 0 0 1 16.64,16.41c3.45,11.18 -0.6,23.86 -11.12,34.79a55.93,55.93 0 0 1 -23.48,14.78c5.08,5.53 11.33,8.9 18,9.6a28.1,28.1 0 0 0 21.5,-7.17l6.35,7a37.92,37.92 0 0 1 -25.23,9.69zm-9,-76.55a16.63,16.63 0 0 0 -11.28,4.59c-12.16,11.28 -12.69,31.09 -6,44.58a46.61,46.61 0 0 0 22.35,-13.11c3.82,-4 12.32,-14.39 8.91,-25.47a14.29,14.29 0 0 0 -10.08,-10.07a14.77,14.77 0 0 0 -3.91,-0.52l0.01,0zm-55.76,-33.55a16.83,16.83 0 0 0 -2.45,0.18a24,24 0 0 0 -14.23,8.53c-10.34,12.29 -12.09,31.92 -5.37,47.5c13.43,-3.36 29.65,-11.78 36.72,-23.52a23.51,23.51 0 0 0 2.72,-18.84c-2.16,-8.17 -9.55,-13.85 -17.39,-13.85z"/>
</svg>