<svg viewBox="0 0 90.473 90.473" xmlns="http://www.w3.org/2000/svg">
	<path d="m45.084 1c-23.238 0-42.275 17.918-44.084 40.689l23.71 9.803c2.009-1.374 4.436-2.179 7.047-2.179.234 0 .467.01.698.021l10.544-15.283c0-.073 0-.144 0-.216 0-9.199 7.483-16.683 16.683-16.683 9.199 0 16.682 7.484 16.682 16.683s-7.483 16.684-16.682 16.684c-.127 0-.253 0-.379-.01l-15.038 10.73c.01.195.015.394.015.592 0 6.906-5.617 12.522-12.522 12.522-6.061 0-11.129-4.326-12.277-10.055l-16.957-7.006c5.25 18.568 22.309 32.181 42.56 32.181 24.432 0 44.237-19.806 44.237-44.235 0-24.433-19.806-44.238-44.237-44.238"/>
	<path d="m28.721 68.122-5.434-2.245c.963 2.005 2.629 3.684 4.841 4.606 4.782 1.992 10.295-.277 12.288-5.063.965-2.314.971-4.869.014-7.189-.955-2.321-2.757-4.131-5.074-5.097-2.299-.957-4.762-.922-6.926-.105l5.613 2.321c3.527 1.47 5.195 5.52 3.725 9.047-1.467 3.528-5.52 5.196-9.047 3.725"/>
	<path d="m70.796 33.835c0-6.129-4.986-11.116-11.116-11.116-6.129 0-11.116 4.987-11.116 11.116 0 6.13 4.987 11.115 11.116 11.115 6.13 0 11.116-4.986 11.116-11.115m-19.448-.019c0-4.612 3.739-8.35 8.351-8.35s8.351 3.738 8.351 8.35-3.739 8.35-8.351 8.35-8.351-3.739-8.351-8.35"/>
</svg>