<svg viewBox="0 0 144.833 144.833" xmlns="http://www.w3.org/2000/svg">
  <mask id="t">
    <rect fill="#FFFFFF" width="144.833" height="144.833"/>
    <path fill="#000000" d="m97.4,117.5l-15.3,0c-13.7,0 -24,-7.1 -24,-24l0,-27.1l-12.5,0l0,-14.7c13.7,-3.6 19.5,-15.4 20.2,-25.6l14.3,0l0,23.3l16.6,0l0,17l-16.6,0l0,23.6c0,7.1 3.6,9.5 9.2,9.5l8.1,0l0,18z"/>
  </mask>
  <path mask="url(#t)" d="m115.9,0l-87,0c-15.9,0 -28.9,13 -28.9,28.9l0,87c0,15.9 13,28.9 28.9,28.9l87,0c15.9,0 28.9,-13 28.9,-28.9l0,-87c0.1,-15.9 -13,-28.9 -28.9,-28.9z"/>
</svg>