<svg viewBox="0 0 896 896" xmlns="http://www.w3.org/2000/svg">
  <path d="m448,490.7l417.3,-294.6c-2.3,-0.4 -4.3,-1.1 -6.6,-1.1l-821.3,0c-2.3,0 -4.3,0.8 -6.6,1.1l417.2,294.6zm448,-264.1c0,-3.3 -1.1,-6.4 -2.3,-9.4l-295.8,208.9l296.3,251c0.8,-2.5 1.8,-5 1.8,-7.7l0,-442.8zm-893.7,-9.4c-1.1,3 -2.3,6.1 -2.3,9.5l0,442.8c0,2.8 1.1,5.2 1.9,7.7l296.3,-251.1l-295.9,-208.9z"/>
  <path d="m569.1,446.4l-109.2,77c-3.4,2.5 -7.7,3.7 -11.9,3.7s-8.5,-1.2 -11.9,-3.7l-109.1,-77l-298.7,253c2.9,0.7 5.9,1.6 9,1.6l821.3,0c3.2,0 6.2,-0.9 9.2,-1.6l-298.7,-253z"/>
</svg>